<svg width="18" height="30" viewBox="0 0 18 30" fill="none" xmlns="http://www.w3.org/2000/svg">
<path d="M1.39183 29.3397C0.969006 28.9167 0.73148 28.3431 0.73148 27.7451C0.73148 27.147 0.969006 26.5735 1.39183 26.1505L12.556 14.9864L1.39183 3.82223C0.980989 3.39686 0.753658 2.82714 0.758799 2.23579C0.763937 1.64443 1.00113 1.07875 1.4193 0.660585C1.83747 0.24242 2.40315 0.00522614 2.9945 8.7738e-05C3.58585 -0.00505257 4.15557 0.222279 4.58094 0.633116L17.3397 13.3918C17.7625 13.8148 18 14.3883 18 14.9864C18 15.5844 17.7625 16.158 17.3397 16.5809L4.58094 29.3397C4.15799 29.7625 3.58443 30 2.98638 30C2.38834 30 1.81477 29.7625 1.39183 29.3397Z" fill="white"/>
</svg>
