<svg width="18" height="30" viewBox="0 0 18 30" fill="none" xmlns="http://www.w3.org/2000/svg">
<path d="M16.6082 0.660346C17.031 1.08329 17.2685 1.65686 17.2685 2.2549C17.2685 2.85295 17.031 3.42651 16.6082 3.84946L5.44402 15.0136L16.6082 26.1778C17.019 26.6031 17.2463 27.1729 17.2412 27.7642C17.2361 28.3556 16.9989 28.9212 16.5807 29.3394C16.1625 29.7576 15.5969 29.9948 15.0055 29.9999C14.4141 30.0051 13.8444 29.7777 13.4191 29.3669L0.660346 16.6082C0.237527 16.1852 0 15.6117 0 15.0136C0 14.4156 0.237527 13.842 0.660346 13.4191L13.4191 0.660346C13.842 0.237527 14.4156 0 15.0136 0C15.6117 0 16.1852 0.237527 16.6082 0.660346Z" fill="white"/>
</svg>
