<svg width="70" height="70" viewBox="0 0 70 70" fill="none" xmlns="http://www.w3.org/2000/svg">
<path fill-rule="evenodd" clip-rule="evenodd" d="M0 0H70V70H0V0ZM53.5121 58.6833C50.2658 58.6833 48.4313 56.9917 47.0225 54.6875L41.6763 57.7938C43.6071 61.6088 47.5533 64.5196 53.6638 64.5196C59.9113 64.5196 64.5633 61.2763 64.5633 55.3525C64.5633 49.8604 61.4075 47.4192 55.8192 45.0188L54.1742 44.3158C51.3508 43.0908 50.1288 42.2946 50.1288 40.32C50.1288 38.7246 51.3538 37.5025 53.2788 37.5025C55.1658 37.5025 56.3821 38.2988 57.5108 40.32L62.6325 37.0329C60.4654 33.2208 57.4613 31.7654 53.2788 31.7654C47.4046 31.7654 43.645 35.5221 43.645 40.4571C43.645 45.8092 46.795 48.3438 51.5433 50.365L53.1883 51.0708C56.1896 52.3833 57.9775 53.1825 57.9775 55.4371C57.9775 57.3213 56.2363 58.6833 53.5121 58.6833ZM28.0204 58.6396C25.76 58.6396 24.8179 57.0938 23.7854 55.2563L18.4304 58.4996C19.9821 61.7837 23.0329 64.5079 28.2975 64.5079C34.1279 64.5079 38.1208 61.4075 38.1208 54.5971V32.1388H31.5437V54.5096C31.5437 57.7967 30.1788 58.6396 28.0175 58.6396H28.0204Z" fill="white"/>
</svg>
