<svg width="70" height="70" viewBox="0 0 70 70" fill="none" xmlns="http://www.w3.org/2000/svg">
<g clip-path="url(#clip0_11_410)">
<path d="M34.7492 0C16.975 0 18.0833 7.74667 18.0833 7.74667L18.1037 15.7733H35.0612V18.1825H11.375C11.375 18.1825 0 16.8846 0 34.9096C0 52.9346 9.92542 52.2929 9.92542 52.2929H15.8462V43.9308C15.8462 43.9308 15.5283 33.9558 25.6171 33.9558H42.4346C42.4346 33.9558 51.8846 34.1075 51.8846 24.7742V9.33917C51.8846 9.33917 53.3167 0 34.7463 0H34.7492ZM25.3983 5.39583C27.0842 5.39583 28.4492 6.76667 28.4492 8.46417C28.4492 10.1587 27.0842 11.5296 25.3983 11.5296C23.7096 11.5296 22.3475 10.1587 22.3475 8.46417C22.3475 6.76667 23.7096 5.39583 25.3983 5.39583Z" fill="white"/>
<path d="M35.2539 70C53.0222 70 51.9139 62.2533 51.9139 62.2533L51.8935 54.2267H34.936V51.8175H58.6281C58.6281 51.8175 70.0031 53.1154 70.0031 35.0904C70.0031 17.0654 60.0747 17.7071 60.0747 17.7071H54.1539V26.0692C54.1539 26.0692 54.4718 36.0442 44.3831 36.0442H27.5685C27.5685 36.0442 18.1185 35.8925 18.1185 45.2258V60.6608C18.1185 60.6608 16.6835 70 35.2539 70ZM44.6047 64.6042C42.916 64.6042 41.5539 63.2333 41.5539 61.5358C41.5539 59.8413 42.916 58.4704 44.6047 58.4704C46.2906 58.4704 47.6556 59.8413 47.6556 61.5358C47.6556 63.2333 46.2906 64.6042 44.6047 64.6042Z" fill="white"/>
</g>
<defs>
<clipPath id="clip0_11_410">
<rect width="70" height="70" fill="white"/>
</clipPath>
</defs>
</svg>
