<svg width="70" height="70" viewBox="0 0 70 70" fill="none" xmlns="http://www.w3.org/2000/svg">
<path d="M21.8809 0H29.4V3.14417H25.025V6.28833H29.4V9.4325H21.8809V0Z" fill="white"/>
<path d="M30.9019 0H38.4239V2.73583H34.0489V3.28125H38.4239V9.56958H30.9019V6.69958H35.2769V6.15125H30.9019V0Z" fill="white"/>
<path d="M39.9292 0H47.4454V2.73583H43.0705V3.28125H47.4454V9.56958H39.9292V6.69958H44.3042V6.15125H39.9292V0Z" fill="white"/>
<path fill-rule="evenodd" clip-rule="evenodd" d="M34.9738 70L14.7204 64.3767L8.75 13.7579H61.25L55.2825 64.3708L34.9738 70ZM20.5538 36.6712L21.1108 42.8779H42.6271L41.9067 50.9279L34.9825 52.8004H34.9767L28.0642 50.9337L27.6208 45.9841H21.3879L22.2571 55.7317L34.9738 59.2608L47.7108 55.7317L49.2625 38.3367L49.4142 36.6712L50.5342 24.1033H19.4367L20.0025 30.3129H43.7325L43.1667 36.6712H20.5538Z" fill="white"/>
</svg>
