<svg width="70" height="70" viewBox="0 0 70 70" fill="none" xmlns="http://www.w3.org/2000/svg">
<path d="M14.8169 0H17.9727V3.11792H20.8602V0H24.0161V9.43833H20.8602V6.27958H17.9727V9.43833H14.8198V0H14.8169Z" fill="white"/>
<path d="M28.1634 3.12958H25.3867V0H34.0988V3.12958H31.3192V9.43833H28.1634V3.12958Z" fill="white"/>
<path d="M35.4814 0H38.7714L40.7956 3.31625L42.8169 0H46.1069V9.43833H42.9656V4.76L40.7956 8.11708H40.7402L38.5673 4.76292V9.43833H35.4814V0Z" fill="white"/>
<path d="M47.6758 0H50.8345V6.32042H55.2679V9.44125H47.6758V0Z" fill="white"/>
<path fill-rule="evenodd" clip-rule="evenodd" d="M14.7175 64.3767L8.75 13.7579H61.25L55.2796 64.3708L34.9708 70L14.7175 64.3767ZM26.7837 36.6683L26.2179 30.31H49.9742L50.5283 24.1034H19.4367L21.1108 42.8779H42.6271L41.9067 50.9279L34.9825 52.8004H34.9767L28.0642 50.9338L27.6208 45.9842H21.385L22.2542 55.7317L34.9708 59.2609L47.7079 55.7317L49.2596 38.3367L49.4113 36.6713H26.7837V36.6683Z" fill="white"/>
</svg>
