<svg width="47" height="70" viewBox="0 0 47 70" fill="none" xmlns="http://www.w3.org/2000/svg">
<g clip-path="url(#clip0_11_419)">
<path d="M11.3884 0H22.7312V22.6857H11.3886C-3.56984 22.101 -3.72091 0.614141 11.3884 0ZM11.3884 46.3418H22.7312V23.656H11.3886C-3.72077 24.2702 -3.5697 45.757 11.3886 46.3418H11.3884ZM35.0445 0H23.7015V22.6857H35.0445C50.2041 21.8745 50.0152 0.463066 35.0445 0ZM22.7312 58.6551V47.3121H11.3886C2.13243 47.3121 -3.72078 58.1643 2.71663 65.9589C8.8542 73.6847 22.7313 69.8329 22.7313 58.6551H22.7312ZM46.4104 34.9989C46.4104 26.2817 36.9088 20.8041 29.3486 25.1627C21.7885 29.5213 21.7883 40.4767 29.3486 44.8353C36.9089 49.1939 46.4104 43.7161 46.4104 34.9989Z" fill="white"/>
</g>
<defs>
<clipPath id="clip0_11_419">
<rect width="46.4844" height="70" fill="white"/>
</clipPath>
</defs>
</svg>
