<svg width="60" height="78" viewBox="0 0 60 78" fill="none" xmlns="http://www.w3.org/2000/svg">
<g clip-path="url(#clip0_11_401)" filter="url(#filter0_d_11_401)">
<path d="M20.6278 54.1363C20.6278 54.1363 17.9503 55.6937 22.5324 56.2187C24.2094 56.4667 26.1461 56.6096 28.1119 56.6096C31.2736 56.6096 34.3478 56.245 37.2965 55.5508L37.0253 55.6033C38.1161 56.2683 39.3849 56.9012 40.7061 57.4233L40.8782 57.4817C27.1757 63.3558 9.86527 57.1404 20.6307 54.1333L20.6278 54.1363Z" fill="white"/>
<path d="M18.9539 46.4713C18.9539 46.4713 15.9526 48.6938 20.5347 49.1663C26.903 49.9236 33.3537 49.5961 39.6126 48.1979L39.2364 48.2679C40.0385 49.0204 40.998 49.6183 42.0597 50.0063L42.118 50.0238C25.5514 54.8683 7.0947 50.4058 18.9539 46.4713Z" fill="white"/>
<path d="M33.0674 33.4688C36.4449 37.3567 32.1807 40.8538 32.1807 40.8538C32.1807 40.8538 40.7528 36.4204 36.8182 30.8846C33.1403 25.7163 30.3199 23.1467 45.5857 14.2946C45.5857 14.2946 21.6224 20.2796 33.0674 33.4688Z" fill="white"/>
<path d="M51.1914 59.8063C51.1914 59.8063 53.1689 61.4396 49.0127 62.6996C41.1027 65.0971 16.0923 65.8204 9.14185 62.7958C6.64518 61.7079 11.3294 60.2 12.7994 59.885C13.476 59.7129 14.2548 59.6138 15.0569 59.6138H15.2231H15.2144C12.4377 57.6567 -2.73773 63.4579 7.51435 65.1146C35.4531 69.6471 58.4452 63.0729 51.2002 59.8063H51.1914Z" fill="white"/>
<path d="M21.9142 38.5292C21.9142 38.5292 9.19168 41.5508 17.4079 42.6475C23.1467 43.0883 28.9134 43.0171 34.6396 42.4346L34.2342 42.4696C39.4988 42.0262 44.7867 41.0696 44.7867 41.0696C43.6439 41.5637 42.5453 42.154 41.5025 42.8342L41.5871 42.7817C28.6663 46.1796 3.71126 44.5987 10.895 41.1221C14.2657 39.3979 17.9998 38.5049 21.7858 38.5175H21.92H21.9142V38.5292Z" fill="white"/>
<path d="M44.7342 51.2896C57.865 44.4646 51.7954 37.9079 47.5546 38.7887C47.0194 38.886 46.4935 39.0285 45.9825 39.2146L46.0496 39.1942C46.3242 38.8037 46.7091 38.5041 47.155 38.3337L47.1725 38.3279C55.555 35.3821 62.0067 47.0225 44.4658 51.6279C44.5724 51.5331 44.6604 51.4194 44.7254 51.2925L44.7283 51.2867L44.7342 51.2896Z" fill="white"/>
<path d="M36.8183 2.23843e-06C36.8183 2.23843e-06 44.0925 7.27417 29.9175 18.4625C18.5541 27.4371 27.3246 32.5529 29.9175 38.4008C23.285 32.4158 18.4171 27.1483 21.6808 22.2425C26.4758 15.0442 39.7554 11.5558 36.8183 -0.00291443V2.23843e-06Z" fill="white"/>
<path d="M23.2063 69.7812C35.8063 70.5892 55.173 69.3321 55.6396 63.3704C55.6396 63.3704 54.7588 65.6308 45.2213 67.4275C39.9538 68.3783 33.8901 68.9208 27.698 68.9208C22.6259 68.9208 17.6413 68.5563 12.7617 67.8533L13.3188 67.9204C13.3188 67.9204 14.9317 69.2563 23.2151 69.7871L23.2063 69.7812Z" fill="white"/>
</g>
<defs>
<filter id="filter0_d_11_401" x="0" y="0" width="60.5" height="78" filterUnits="userSpaceOnUse" color-interpolation-filters="sRGB">
<feFlood flood-opacity="0" result="BackgroundImageFix"/>
<feColorMatrix in="SourceAlpha" type="matrix" values="0 0 0 0 0 0 0 0 0 0 0 0 0 0 0 0 0 0 127 0" result="hardAlpha"/>
<feOffset dy="4"/>
<feGaussianBlur stdDeviation="2"/>
<feComposite in2="hardAlpha" operator="out"/>
<feColorMatrix type="matrix" values="0 0 0 0 0 0 0 0 0 0 0 0 0 0 0 0 0 0 0.25 0"/>
<feBlend mode="normal" in2="BackgroundImageFix" result="effect1_dropShadow_11_401"/>
<feBlend mode="normal" in="SourceGraphic" in2="effect1_dropShadow_11_401" result="shape"/>
</filter>
<clipPath id="clip0_11_401">
<rect width="52.5" height="70" fill="white" transform="translate(4)"/>
</clipPath>
</defs>
</svg>
