<svg width="70" height="70" viewBox="0 0 70 70" fill="none" xmlns="http://www.w3.org/2000/svg">
<path d="M0 0V70H70V0H0ZM29.7415 50.2478L23.2695 36.91L17.0252 50.216H10.9393L19.8954 33.1537L11.2361 15.9004H17.5528L23.6835 29.0154L29.7629 15.8685H35.6923L27.0259 32.6125L36.2041 50.2478H29.7415ZM57.4898 48.8471C54.8159 50.1205 52.0145 50.6935 49.3406 50.6935C42.433 50.7254 37.4989 46.4598 37.4989 37.8012C37.7237 28.9315 43.6338 23.9821 51.9191 24.6544V15.9004H57.5853V45.3775C57.597 48.8929 57.985 48.5548 57.4898 48.8471ZM51.9189 29.6521V45.4092C46.3262 46.8605 43.2339 43.4569 43.2606 37.5465C43.2816 31.4852 47.2639 28.3395 51.9189 29.6521Z" fill="white"/>
</svg>
