<svg width="70" height="70" viewBox="0 0 70 70" fill="none" xmlns="http://www.w3.org/2000/svg">
<path d="M11.9723 11.9761C11.9723 11.9761 26.7094 4.61194 34.0765 0.925478C35.4173 0.264487 36.902 -0.0512939 38.3958 0.00677911C40.6298 0.143855 43.2868 2.30499 43.2868 2.30499L69.9961 29.0173V57.5669H57.5631V70H28.5497L2.30112 43.7514C0.883701 42.2932 0 40.2371 0 38.2247C0 37.2943 0.524971 35.839 0.921616 35.0019L11.9723 11.9761ZM13.9526 13.9564V48.3333C13.9584 49.9169 14.0138 51.3198 15.405 52.7314L29.76 67.0835H54.6466V54.6504L13.9526 13.9564ZM49.111 11.979C46.4891 9.36585 43.8351 6.78766 41.1198 4.27071C40.239 3.492 39.4662 2.90579 37.9992 2.92329C36.92 2.96412 35.4618 3.492 35.4618 3.492L18.4936 11.9761L49.111 11.979Z" fill="white"/>
</svg>
